<svg id="Layer_1" data-name="Layer 1" xmlns="http://www.w3.org/2000/svg" viewBox="0 0 864.89 867.9"><defs><style>.cls-1{fill:#b7813b;}</style></defs><path class="cls-1" d="M880,395.43a463.43,463.43,0,0,0-23.21-84q-41.94-109.35-130.2-186.4-85.1-74.58-195-101.7c-10.43-2.59-21-4.76-31.44-7.13h-10a10.83,10.83,0,0,1-1.73.88c-11.64,3.66-18.79,13.44-18.23,25s9,20.84,21.07,23.23c5.38,1.06,10.8,1.92,16.14,3.15,125.94,29,219.75,100.61,282,213.57,21.51,39,35,81.06,42.62,125A24.64,24.64,0,0,0,868,424.9c7-3.62,10.46-9.85,13.07-16.81v-10C880.06,397.46,880.21,396.39,880,395.43Z" transform="translate(-16.18 -16.23)"/><path class="cls-1" d="M774.59,629q-38.33-38.7-76.87-77.2c-20.67-20.58-45.3-30-74.51-24.67-17.73,3.22-32.66,12.15-45.38,24.67-19,18.69-37.76,37.62-56.61,56.47-1.8,1.8-3.17,3.46-6.28,1.76-12.26-6.69-24.94-12.58-36.64-20.32C427.75,556.23,384.14,515.15,345.14,469c-22.31-26.43-42.26-54.41-57.34-85.69-1.59-3.32-1.19-5.17,1.47-7.58,16.26-14.81,31.46-30.72,46.88-46.39,8.53-8.66,17.18-17.21,23.53-27.76,10.43-17.31,15-35.78,11.67-55.91-3.18-19.46-12.8-35.55-26.4-49.37-19.52-19.83-39.43-39.27-58.86-59.17-15.37-15.74-30.56-31.63-46.73-46.54-17.65-16.29-38.24-25.4-62.51-24.09-23.18,1.26-42.48,11.6-58.69,27.75-21.12,21.05-42,42.34-62.89,63.62a145.68,145.68,0,0,0-11.13,12.81c-20.5,26.55-28.81,56.93-27.9,90.15-.4,14.84,1.18,29.56,3.69,44.18C27,346.44,41.77,385.43,59.09,423.5c38.82,85.31,93.18,160.06,156.83,228.27a836.51,836.51,0,0,0,168,138.55c47.64,29.86,97.3,55.72,150.57,74.08,36.38,12.53,73.63,20.91,112.42,19.6s71.35-16.46,97.34-45.07c12.45-13.7,25.39-26.86,38.72-39.67,7.92-7.63,15.78-15.32,23-23.65C835.56,741.24,836.13,697,807,662.25,797.09,650.36,785.49,640,774.59,629Zm-4.22,112.18A148.4,148.4,0,0,1,760,752.64C742,770.9,723.35,788.53,706,807.5c-18.15,19.89-41.57,28-80.72,27.23-18-.56-47.45-7.25-76.16-17.29-49.88-17.46-96.31-41.94-140.9-70.06a790.13,790.13,0,0,1-159-132.2c-57.89-62.54-107.44-131-143.46-208.57C90.41,373.38,77,339.34,69.9,303.21c-4.58-23.33-6.68-46.8-1.7-70.37A79,79,0,0,1,89.84,193q31.82-32.14,63.91-64c6.73-6.71,14.54-11.71,24.26-12.82,11.51-1.31,21,3.38,28.77,11.2q52.48,52.46,104.65,105.25c9.35,9.47,14.83,20.66,10.6,34.4-2.4,7.8-7.51,14.05-13.21,19.74-19.91,19.9-39.48,40.15-60.16,59.27-15.21,14.07-18.19,28.7-10.08,47.87,15,35.58,36.38,67.26,60.65,97.06,45,55.25,96,103.86,156,142.67C470.83,643.73,487.6,651.55,504,660c14.81,7.66,30.39,4.33,42.57-7.76,20.93-20.77,41.7-41.7,62.59-62.51a76.47,76.47,0,0,1,9.07-7.8c14.42-10.38,29.65-9.28,42.58,3,3,2.86,5.9,5.88,8.84,8.83q46.79,46.85,93.57,93.72a88.68,88.68,0,0,1,7.44,8.08C782.42,710.75,782.35,726.12,770.37,741.17Z" transform="translate(-16.18 -16.23)"/><path class="cls-1" d="M485.14,223a170.92,170.92,0,0,1,27.61,6.57q133.59,46.08,162.3,184.53c2.89,14,15.12,23.13,28.74,20.76s22.51-15.17,20.11-29.24a235.77,235.77,0,0,0-8.4-34.87Q668.27,228.69,525.94,182a187.14,187.14,0,0,0-36.5-8.24c-3.58.17-6.21.19-8.81,1.05A24.93,24.93,0,0,0,463.25,200C464,211.8,472.5,220.9,485.14,223Z" transform="translate(-16.18 -16.23)"/></svg>