<svg id="Layer_1" data-name="Layer 1" xmlns="http://www.w3.org/2000/svg" viewBox="0 0 711.84 909.68"><defs><style>.cls-1{fill:#b7813b;}</style></defs><path class="cls-1" d="M721.57,394.71V359.64c-.1-15.07-.29-30.17-2.67-45.05C712,271.38,697.09,231,675.56,192.9A364.83,364.83,0,0,0,586,87.91,345.77,345.77,0,0,0,486.46,31.6c-25.06-9.09-50.55-16.67-77.59-17.67-8.21-.3-16.49-.29-24.67-1.42h-37c-2.55,1.1-5.23.33-7.85.49-14.19.84-28.45.8-42.45,3.72a354.94,354.94,0,0,0-100,36.59A366.3,366.3,0,0,0,41,221.45c-19.91,43.63-32.12,89-31.14,137.31v36.05c0,15.22.16,30.48,2.55,45.47A355.13,355.13,0,0,0,35.74,521.2,823.09,823.09,0,0,0,85.35,621.38c24.26,41.29,52,80.16,82.09,117.36,22.76,28.09,47.18,54.68,72.21,80.71,14.42,15,29.81,29,45,43.24,18.48,17.29,37.6,33.82,56.92,50.16,5.89,5,11.92,8.66,19.63,9.34h9c7.69-.68,14-4,19.59-9.37,4.15-4.06,8.83-7.58,13.3-11.32,26.94-22.54,52.3-46.81,77.72-71,9.41-9,17.66-19,27-28.08,8.94-8.7,17.12-18.15,25.36-27.5a1078,1078,0,0,0,67.74-84.48C625.45,656.14,648,620.6,667.07,583q14.38-28.28,26.79-57.46C711.73,483.7,722.61,440.48,721.57,394.71Zm-51.26,6.05c-2.9,42.42-15.26,82.11-32.59,120.71-30,66.87-69.52,127.65-115.73,184.27s-97.91,107.65-153.4,155c-2.41,2-3.77,2-6.13,0C284.12,793.78,213.35,719.9,155.81,634,123,585,94.75,533.44,76.05,477.4,27.24,331.1,90.2,171.58,224.62,99.18c43.93-23.67,91-35.14,155-35.51C480,67.68,567.85,118.13,627.35,216,661.72,272.55,674.84,334.75,670.31,400.76Z" transform="translate(-9.79 -12.51)"/><path class="cls-1" d="M297.18,160.44c-93,29.74-157.68,120.13-157.76,224.27.43,46.56,14.76,92.54,44.17,133.6,60.58,84.56,170.25,117,264.53,78.31C571.31,546.1,626.56,400.88,568.67,279.79,519.25,176.41,404.69,126.05,297.18,160.44ZM455.3,535.86c-71.69,43.31-160.9,30.3-218.06-31.8-83.14-90.32-53.17-237.87,58.58-288.14a164.91,164.91,0,0,1,69.77-14.73c84.93.47,158.22,62.83,172.65,146.9C551.21,423.62,518.5,497.68,455.3,535.86Z" transform="translate(-9.79 -12.51)"/></svg>