<svg id="Layer_1" data-name="Layer 1" xmlns="http://www.w3.org/2000/svg" viewBox="0 0 583.8 127.67"><defs><style>.cls-1{fill:#0a0a0a;}</style></defs><path class="cls-1" d="M64.06,91.58,40.18,60.76a45.12,45.12,0,0,0,10.48-3,26.79,26.79,0,0,0,8.22-5.49,24.43,24.43,0,0,0,5.42-8,26.26,26.26,0,0,0,2-10.41V30.79a23.14,23.14,0,0,0-2.74-11.63,22.54,22.54,0,0,0-7.43-7.86,34.11,34.11,0,0,0-11-4.5A60.39,60.39,0,0,0,31.41,5.33H5.22v5.12a7.43,7.43,0,0,1,1.52.12,1.12,1.12,0,0,1,.8.67A5.47,5.47,0,0,1,7.84,13c0,.81.06,2,.06,3.53L7.78,89.27V92.8a4.78,4.78,0,0,1-.24,1.77,1.11,1.11,0,0,1-.74.67,7.3,7.3,0,0,1-1.58.12v5H22.88v-5a7.5,7.5,0,0,1-1.52-.12,1.11,1.11,0,0,1-.79-.67,5.47,5.47,0,0,1-.3-1.77c-.05-.81-.07-2-.07-3.53V61.37H32.87a6.88,6.88,0,0,0,1.34-.12L56.75,90.36a4,4,0,0,1,1.1,3.35c-.25,1-1.1,1.53-2.56,1.53l-.12,5.11H69.66V95.24a5.84,5.84,0,0,1-2.31-.61A10.52,10.52,0,0,1,64.06,91.58Zm-34-35.2H20.2V10.45H30.32A34.48,34.48,0,0,1,39,11.55,22.38,22.38,0,0,1,46.52,15a17.42,17.42,0,0,1,5.3,6.27,20.55,20.55,0,0,1,2,9.5v2.93a24.12,24.12,0,0,1-1.95,10.11,20.43,20.43,0,0,1-5.18,7.06A20.81,20.81,0,0,1,39.15,55,30.65,30.65,0,0,1,30.07,56.38Z" transform="translate(-5.22 -3.14)"/><path class="cls-1" d="M136.46,49.92a30.52,30.52,0,0,0-6.28-9.87,26.19,26.19,0,0,0-9-6.09,28.19,28.19,0,0,0-10.78-2.07A31.92,31.92,0,0,0,98.87,34a24.57,24.57,0,0,0-9.31,6.34,30.59,30.59,0,0,0-6.28,10.78A46.16,46.16,0,0,0,81,66.49q0,16.68,7.92,25.34t22.78,8.64a26.85,26.85,0,0,0,8-1.34,27.54,27.54,0,0,0,8.23-4.2,28.89,28.89,0,0,0,6.88-7.31,26,26,0,0,0,4-10.53l-4.87-.61a22.9,22.9,0,0,1-2.93,7.73,19.77,19.77,0,0,1-5,5.54A21.18,21.18,0,0,1,119.58,93a23,23,0,0,1-7.06,1.1,16.55,16.55,0,0,1-7.13-1.58,18.09,18.09,0,0,1-6-4.75A24.64,24.64,0,0,1,95,80a36.2,36.2,0,0,1-1.89-10.72l46-5.85A41.28,41.28,0,0,0,136.46,49.92ZM93.15,64.17q.6-13.89,5.48-20.4a15,15,0,0,1,12.55-6.52,14.64,14.64,0,0,1,6.27,1.4,16.31,16.31,0,0,1,5.36,4.14,20.38,20.38,0,0,1,3.78,6.89A30.14,30.14,0,0,1,128,59.3Z" transform="translate(-5.22 -3.14)"/><path class="cls-1" d="M211.17,94.44a5,5,0,0,1-.31-1.76c0-.81-.06-2-.06-3.53v-86h-15v5a6.6,6.6,0,0,1,1.46.12,1.07,1.07,0,0,1,.73.67,5.56,5.56,0,0,1,.3,1.82c0,.86.07,2,.07,3.48l.12,29.84a27.16,27.16,0,0,0-9.63-8.16,25.28,25.28,0,0,0-11.45-2.8h-1.58a24.66,24.66,0,0,0-9.56,2A24.23,24.23,0,0,0,157.87,41a30.42,30.42,0,0,0-6,9.86,38.24,38.24,0,0,0-2.31,14v3A40.22,40.22,0,0,0,151.84,82a32,32,0,0,0,6,10.23A25.76,25.76,0,0,0,166,98.46a20.84,20.84,0,0,0,9,2.14h1.7a27,27,0,0,0,11.88-2.81,28.11,28.11,0,0,0,10.05-8.28v10.84h14.86V95.24a6.67,6.67,0,0,1-1.52-.13A1.07,1.07,0,0,1,211.17,94.44Zm-20.35-3.71a18.13,18.13,0,0,1-10.72,3.65,15.34,15.34,0,0,1-6.64-1.52,15.69,15.69,0,0,1-5.72-4.75,25.28,25.28,0,0,1-4-8.16,40.45,40.45,0,0,1-1.52-11.88V64.54a35.42,35.42,0,0,1,1.58-11.21,24.31,24.31,0,0,1,4.14-7.86,16,16,0,0,1,5.85-4.56,16.24,16.24,0,0,1,6.7-1.47,18.31,18.31,0,0,1,10.47,3.41,20.89,20.89,0,0,1,7.56,10l.12,27.53A22.73,22.73,0,0,1,190.82,90.73Z" transform="translate(-5.22 -3.14)"/><path class="cls-1" d="M241.11,94.44a5.29,5.29,0,0,1-.31-1.76c0-.81-.06-2-.06-3.53V33.23h-15v5a1.78,1.78,0,0,1,1.52.73,4.52,4.52,0,0,1,.79,1.7,10.27,10.27,0,0,1,.31,2q.06,1,.06,1.65V89.15c0,2.27,0,3.85.12,4.75s-.61,1.34-2.07,1.34h-.73v5.11h17.66V95.24a6.73,6.73,0,0,1-1.52-.13A1.07,1.07,0,0,1,241.11,94.44Z" transform="translate(-5.22 -3.14)"/><path class="cls-1" d="M230.27,22.27a6.5,6.5,0,0,0,4.38,1.58A6.14,6.14,0,0,0,239,22.21a5.38,5.38,0,0,0,1.76-4.08,4.94,4.94,0,0,0-1.76-4,7.07,7.07,0,0,0-8.71.06,4.89,4.89,0,0,0-1.83,4A5.23,5.23,0,0,0,230.27,22.27Z" transform="translate(-5.22 -3.14)"/><path class="cls-1" d="M316,125.33a2.41,2.41,0,0,1-.3-1.1q-.06-.74-.06-2.07V33.35H303.33V44.07a25.91,25.91,0,0,0-8.16-7.31,28.18,28.18,0,0,0-9.87-3.41,7.66,7.66,0,0,0-1.82-.24h-1.83a26.54,26.54,0,0,0-10.11,2.25A24.53,24.53,0,0,0,263,41.7a31.77,31.77,0,0,0-6,10.47,43.11,43.11,0,0,0-2.25,14.56A47.25,47.25,0,0,0,256.37,79a34.72,34.72,0,0,0,4.94,10.85,26.06,26.06,0,0,0,8.4,7.73,23.5,23.5,0,0,0,12.06,3,9.27,9.27,0,0,0,1.71-.13,12.27,12.27,0,0,0,2.07-.12,26,26,0,0,0,9.74-3.47,27.67,27.67,0,0,0,8-7.25v32.28c0,1,0,1.73-.06,2.26a2.55,2.55,0,0,1-.3,1.16,1.05,1.05,0,0,1-.79.42,15.07,15.07,0,0,1-1.53.06v5h17.67v-5a15.07,15.07,0,0,1-1.53-.06A1,1,0,0,1,316,125.33ZM303.33,81.11a26.5,26.5,0,0,1-6.94,9.38,16.18,16.18,0,0,1-11,3.89,13.36,13.36,0,0,1-8.53-2.68,20.42,20.42,0,0,1-5.54-6.76,30.35,30.35,0,0,1-3-9,53.68,53.68,0,0,1-.85-9.26A43.67,43.67,0,0,1,269,54.43a27.93,27.93,0,0,1,4-8.53,15.7,15.7,0,0,1,5.73-5,14.84,14.84,0,0,1,6.64-1.59,17.6,17.6,0,0,1,10.23,3.41,22.9,22.9,0,0,1,7.67,9.63Z" transform="translate(-5.22 -3.14)"/><path class="cls-1" d="M392.48,94.44a5.34,5.34,0,0,1-.3-1.76c-.05-.81-.07-2-.07-3.53V33.35h-15v5a7.43,7.43,0,0,1,1.52.12,1.1,1.1,0,0,1,.8.67,5.36,5.36,0,0,1,.3,1.77c0,.81.06,2,.06,3.53V84.76a51.91,51.91,0,0,1-4.38,3.17,49.64,49.64,0,0,1-5.18,2.92A35,35,0,0,1,364.64,93a19.26,19.26,0,0,1-5.54.86,13.07,13.07,0,0,1-5.3-1.1,10.58,10.58,0,0,1-4.32-3.65,19.5,19.5,0,0,1-2.86-6.77,43.77,43.77,0,0,1-1-10.41l-.12-38.62H330.6v5a7.5,7.5,0,0,1,1.52.12,1.07,1.07,0,0,1,.79.67,5.58,5.58,0,0,1,.31,1.77c0,.81.06,2,.06,3.53V71.12A46.17,46.17,0,0,0,335,84.88,26.2,26.2,0,0,0,339.73,94a16.53,16.53,0,0,0,6.7,4.93,21.33,21.33,0,0,0,7.8,1.46h2.44a28.75,28.75,0,0,0,12.48-2.8,51.59,51.59,0,0,0,10.66-6.7v9.5h15V95.24a6.73,6.73,0,0,1-1.52-.13A1.09,1.09,0,0,1,392.48,94.44Z" transform="translate(-5.22 -3.14)"/><path class="cls-1" d="M468.47,93.65a2.8,2.8,0,0,1-1.46-.36,2.64,2.64,0,0,1-1-1.53,13.94,13.94,0,0,1-.49-3.22q-.12-2.07-.12-5.49V61a28.34,28.34,0,0,0-2.56-12.48,25.46,25.46,0,0,0-6.76-8.77,28.43,28.43,0,0,0-9.5-5.18,34.89,34.89,0,0,0-10.78-1.7,36,36,0,0,0-10.23,1.46,27.34,27.34,0,0,0-8.83,4.32,22,22,0,0,0-6.16,7.07,19.52,19.52,0,0,0-2.31,9.56l9,1.46a21,21,0,0,1,1.47-8.22,16.91,16.91,0,0,1,3.89-5.79,15.54,15.54,0,0,1,5.55-3.41,19.07,19.07,0,0,1,6.39-1.09,19.69,19.69,0,0,1,6.76,1.21,18.46,18.46,0,0,1,6,3.54,16.88,16.88,0,0,1,4.2,5.78,19,19,0,0,1,1.59,8V58.2c-2.44,0-5.28.13-8.53.37a88,88,0,0,0-10,1.34,77.29,77.29,0,0,0-10.05,2.62,35,35,0,0,0-8.83,4.32,21.58,21.58,0,0,0-6.21,6.4,16.31,16.31,0,0,0-2.32,8.83,23.26,23.26,0,0,0,1.4,8.53,15.09,15.09,0,0,0,3.84,5.72,15.27,15.27,0,0,0,5.73,3.23,23.77,23.77,0,0,0,7.18,1A42.4,42.4,0,0,0,439.17,98a73.37,73.37,0,0,0,14.31-6.82c.57,3.41,1.65,5.84,3.23,7.31a7.93,7.93,0,0,0,5.54,2.19,11.94,11.94,0,0,0,7.68-3.17l-.85-3.9Zm-15.35-7.19v.37A58.24,58.24,0,0,1,441.18,93a29.29,29.29,0,0,1-9.62,1.89q-5.85,0-9-3.53t-3-9.75a13.92,13.92,0,0,1,2.37-7.92,19.86,19.86,0,0,1,6.76-6,38.63,38.63,0,0,1,10.6-3.89,68.39,68.39,0,0,1,13.89-1.53Z" transform="translate(-5.22 -3.14)"/><path class="cls-1" d="M522.53,36.4a10.87,10.87,0,0,0-4.08-2.8,13.16,13.16,0,0,0-4.69-.86h-1.22A13,13,0,0,0,504.26,36a31.7,31.7,0,0,0-7.19,8.77V33.35h-15v5a7.61,7.61,0,0,1,1.53.12,1.09,1.09,0,0,1,.79.67,5.36,5.36,0,0,1,.3,1.77c0,.81.06,2,.06,3.53V89.15c0,1.54,0,2.72-.06,3.53a5.34,5.34,0,0,1-.3,1.76,1.09,1.09,0,0,1-.79.67,6.83,6.83,0,0,1-1.53.13v5.11h17.67V95.24a6.67,6.67,0,0,1-1.52-.13,1.1,1.1,0,0,1-.8-.67,5.34,5.34,0,0,1-.3-1.76c0-.81-.06-2-.06-3.53V55q2.55-6.94,6-10t6.64-3.11a7.22,7.22,0,0,1,6,3.35q2.43,3.35,1.82,9.08l9-1.47v-4a22.09,22.09,0,0,0-1.1-7.43A14.19,14.19,0,0,0,522.53,36.4Z" transform="translate(-5.22 -3.14)"/><path class="cls-1" d="M580.73,84.21a19.77,19.77,0,0,1-5,5.54A21.18,21.18,0,0,1,569.4,93a23,23,0,0,1-7.06,1.1,16.55,16.55,0,0,1-7.13-1.58,18.09,18.09,0,0,1-6-4.75,24.64,24.64,0,0,1-4.32-7.8A36.2,36.2,0,0,1,543,69.29l46-5.85a41.28,41.28,0,0,0-2.74-13.52A30.52,30.52,0,0,0,580,40.05a26.19,26.19,0,0,0-9-6.09,28.19,28.19,0,0,0-10.78-2.07A31.88,31.88,0,0,0,548.69,34a24.69,24.69,0,0,0-9.32,6.34,30.73,30.73,0,0,0-6.27,10.78,46.16,46.16,0,0,0-2.31,15.41q0,16.68,7.91,25.34t22.79,8.64a26.85,26.85,0,0,0,8-1.34,27.54,27.54,0,0,0,8.23-4.2,29.07,29.07,0,0,0,6.88-7.31,26,26,0,0,0,4-10.53l-4.87-.61A22.9,22.9,0,0,1,580.73,84.21ZM548.45,43.77A15,15,0,0,1,561,37.25a14.64,14.64,0,0,1,6.27,1.4,16.31,16.31,0,0,1,5.36,4.14,20.38,20.38,0,0,1,3.78,6.89,30.14,30.14,0,0,1,1.4,9.62L543,64.17Q543.57,50.28,548.45,43.77Z" transform="translate(-5.22 -3.14)"/></svg>