<svg id="Layer_1" data-name="Layer 1" xmlns="http://www.w3.org/2000/svg" viewBox="0 0 870.46 673.17"><defs><style>.cls-1{fill:#b7813b;}</style></defs><path class="cls-1" d="M874.44,567.45q0-230,0-460c0-1.49.13-3,.2-4.48a.61.61,0,0,1,.45,0c2.61-50.26-48.77-103-101.34-99.1H106.38c-11.54.46-23.09.41-34.1,4.88-19.41,7.89-35.59,19.92-48,36.81-9.67,13.15-17.11,27.29-18.44,44-.31,3.92-.25,7.89-1.11,11.77V579.13c.85,1,.39,2.23.5,3.35.69,7.2.79,14.46,2.94,21.49,10.72,35.11,49.13,75.77,99.33,72.62H772.84c53.8,4.06,104.93-49.35,102.23-99.15l-.47,0C874.54,574.1,874.44,570.77,874.44,567.45Zm-54.24,28c-11.43,20.76-29.06,31.57-52.84,31.59q-163.7.1-327.37,0-163.44,0-326.88,0c-30.2,0-53.63-19.54-59-49.24a68,68,0,0,1-.69-12q0-225.64,0-451.29c0-30.14,17.67-53.22,45.39-59.67a67.84,67.84,0,0,1,15.38-1.5q325.62,0,651.24,0c36.24,0,61.09,24.93,61.1,61.33q0,224.15.11,448.29C826.67,574.44,825.73,585.42,820.2,595.48Z" transform="translate(-4.71 -3.64)"/><path class="cls-1" d="M764.83,537.88Q661.08,438.13,557.42,338.25c-2.92-2.81-3.33-4.19-.06-7.15q57.45-52,114.65-104.2,46.56-42.39,93.13-84.77c5.85-5.31,9.41-11.55,9.42-19.57A24.32,24.32,0,0,0,744.09,98.5c-6.26,1.62-10.64,6-15.19,10.14Q586.31,238.57,443.78,368.54c-2.8,2.56-4.17,2.3-6.78-.09-19.89-18.24-39.94-36.29-59.91-54.43q-82.32-74.76-164.6-149.54-32.91-29.91-65.84-59.82c-14.16-12.82-35.24-7.36-40.4,10.63-3.27,11.36,1.16,20.19,9.7,27.92q104.68,94.73,209.2,189.64c2.92,2.64,3.12,4,.14,6.78Q243.65,417,162.21,494.49c-15.94,15.15-32,30.19-47.75,45.52-13.62,13.24-8.81,35.42,8.85,41.39,10.47,3.55,19,0,26.78-7.38Q256,473.22,361.94,372.53c2.66-2.55,4.1-2.57,6.81-.08,17.4,16,35,31.82,52.5,47.74,13.37,12.16,25.32,12.13,38.71-.1,18-16.4,36-32.68,53.91-49.16,2.69-2.48,4.21-2.88,7.13-.06q66,64,132.31,127.75,40.13,38.67,80.26,77.33c7.4,7.12,16.17,9.24,25.77,5.55s14.77-11.14,15.63-21.32C775.75,551,771.3,544.1,764.83,537.88Z" transform="translate(-4.71 -3.64)"/></svg>